<svg width="128" height="128" viewBox="0 0 128 128" fill="none" xmlns="http://www.w3.org/2000/svg">
<circle cx="64" cy="64" r="64" fill="#FFA500"/>
<path d="M44.269 37.114C40.417 37.114 37.57 40.486 37.699 44.14C37.819 47.653 37.66 52.201 36.514 55.912C35.365 59.632 33.424 61.99 30.25 62.293V65.707C33.424 66.01 35.365 68.368 36.514 72.088C37.66 75.796 37.819 80.347 37.696 83.857C37.57 87.514 40.417 90.886 44.272 90.886H83.734C87.586 90.886 90.436 87.514 90.31 83.857C90.187 80.347 90.346 75.796 91.489 72.088C92.641 68.368 94.579 66.01 97.75 65.707V62.293C94.576 61.99 92.641 59.632 91.489 55.912C90.346 52.204 90.187 47.653 90.31 44.14C90.436 40.486 87.586 37.114 83.734 37.114H44.269ZM76.012 70.213C76.012 75.247 72.259 78.301 66.028 78.301H55.42C55.2696 78.3014 55.1207 78.2721 54.9817 78.2149C54.8427 78.1576 54.7163 78.0735 54.6098 77.9673C54.5034 77.8611 54.4189 77.735 54.3613 77.5961C54.3037 77.4572 54.274 77.3084 54.274 77.158V50.842C54.274 50.6917 54.3037 50.5428 54.3613 50.4039C54.4189 50.265 54.5034 50.1389 54.6098 50.0327C54.7163 49.9266 54.8427 49.8424 54.9817 49.7852C55.1207 49.7279 55.2696 49.6986 55.42 49.699H65.965C71.161 49.699 74.572 52.513 74.572 56.836C74.572 59.866 72.277 62.584 69.355 63.058V63.217C73.333 63.652 76.012 66.409 76.012 70.213ZM64.87 53.323H58.822V61.867H63.916C67.855 61.867 70.024 60.283 70.024 57.448C70.024 54.793 68.158 53.326 64.87 53.326V53.323ZM58.822 65.257V74.674H65.092C69.193 74.674 71.362 73.027 71.362 69.934C71.362 66.844 69.133 65.257 64.828 65.257H58.822Z" fill="#333333"/>
</svg>
