<svg width="128" height="128" viewBox="0 0 128 128" fill="none" xmlns="http://www.w3.org/2000/svg">
<circle cx="64" cy="64" r="64" fill="#FFC800"/>
<path d="M93.4545 62.8182C86.9091 62.8182 83.6364 53 73.8182 53C64 53 64 59.5455 64 59.5455C64 59.5455 64 53 54.1818 53C44.3636 53 41.0909 62.8182 34.5455 62.8182C31.2727 62.8182 28 59.5455 28 59.5455C28 59.5455 31.2727 75.9091 44.3636 75.9091C60.7273 75.9091 64 66.0909 64 66.0909C64 66.0909 67.2727 75.9091 83.6364 75.9091C96.7273 75.9091 100 59.5455 100 59.5455C100 59.5455 96.7273 62.8182 93.4545 62.8182Z" fill="white"/>
</svg>
