<svg width="128" height="128" viewBox="0 0 128 128" fill="none" xmlns="http://www.w3.org/2000/svg">
<circle cx="64" cy="64" r="64" fill="#FFA500"/>
<path d="M64.2411 56.9251C68.0968 56.9251 71.2412 60.0695 71.2412 64C71.2412 67.7434 68.0968 70.9252 64.2411 70.9252C60.3854 70.9252 57.241 67.7434 57.241 64C57.241 60.0695 60.3854 56.9251 64.2411 56.9251ZM46.9094 93.9469C49.2677 95.3693 54.4335 93.1982 60.3854 87.5832C58.4389 85.3746 56.5298 82.9788 54.733 80.4708C51.7164 80.1821 48.7174 79.7323 45.7489 79.1232C43.8398 87.134 44.551 92.6367 46.9094 93.9469ZM49.5671 72.46L48.4816 70.5509C48.0698 71.6365 47.658 72.722 47.396 73.7702C48.4067 73.9948 49.5297 74.1819 50.6901 74.3691L49.5671 72.46ZM74.0487 69.615L77.0808 64L74.0487 58.385C72.9257 56.401 71.7278 54.6416 70.6422 52.8822C68.6208 52.7699 66.4871 52.7699 64.2411 52.7699C61.9951 52.7699 59.8614 52.7699 57.84 52.8822C56.7544 54.6416 55.5565 56.401 54.4335 58.385L51.4014 64L54.4335 69.615C55.5565 71.599 56.7544 73.3584 57.84 75.1178C59.8614 75.2301 61.9951 75.2301 64.2411 75.2301C66.4871 75.2301 68.6208 75.2301 70.6422 75.1178C71.7278 73.3584 72.9257 71.599 74.0487 69.615ZM64.2411 44.4597C63.5299 45.2832 62.7812 46.1442 62.0325 47.1549H66.4497C65.701 46.1442 64.9523 45.2832 64.2411 44.4597ZM64.2411 83.5403C64.9523 82.7168 65.701 81.8558 66.4497 80.8451H62.0325C62.7812 81.8558 63.5299 82.7168 64.2411 83.5403ZM81.5354 34.0531C79.2145 32.6307 74.0487 34.8018 68.0968 40.4168C70.0433 42.6254 71.9524 45.0212 73.7492 47.5292C76.8188 47.8287 79.8509 48.2779 82.7333 48.8768C84.6424 40.866 83.9312 35.3633 81.5354 34.0531ZM78.9151 55.54L80.0006 57.4491C80.4124 56.3636 80.8242 55.278 81.0862 54.2298C80.0755 54.0052 78.9525 53.8181 77.7921 53.6309L78.9151 55.54ZM84.3429 29.1493C89.8457 32.2938 90.4446 40.5666 88.1237 50.2244C97.6319 53.032 104.482 57.6737 104.482 64C104.482 70.3263 97.6319 74.968 88.1237 77.7756C90.4446 87.4334 89.8457 95.7062 84.3429 98.8507C78.8776 101.995 71.4283 98.4015 64.2411 91.5511C57.0539 98.4015 49.6046 101.995 44.1018 98.8507C38.6365 95.7062 38.0376 87.4334 40.3585 77.7756C30.8503 74.968 24 70.3263 24 64C24 57.6737 30.8503 53.032 40.3585 50.2244C38.0376 40.5666 38.6365 32.2938 44.1018 29.1493C49.6046 26.0049 57.0539 29.5985 64.2411 36.4489C71.4283 29.5985 78.8776 26.0049 84.3429 29.1493ZM83.2574 64C84.5301 66.8075 85.6531 69.615 86.5889 72.46C94.45 70.1017 98.8672 66.7327 98.8672 64C98.8672 61.2673 94.45 57.8983 86.5889 55.54C85.6531 58.385 84.5301 61.1925 83.2574 64ZM45.2248 64C43.9521 61.1925 42.8291 58.385 41.8933 55.54C34.0322 57.8983 29.615 61.2673 29.615 64C29.615 66.7327 34.0322 70.1017 41.8933 72.46C42.8291 69.615 43.9521 66.8075 45.2248 64ZM78.9151 72.46L77.7921 74.3691C78.9525 74.1819 80.0755 73.9948 81.0862 73.7702C80.8242 72.722 80.4124 71.6365 80.0006 70.5509L78.9151 72.46ZM68.0968 87.5832C74.0487 93.1982 79.2145 95.3693 81.5354 93.9469C83.9312 92.6367 84.6424 87.134 82.7333 79.1232C79.8509 79.7221 76.8188 80.1713 73.7492 80.4708C71.9524 82.9788 70.0433 85.3746 68.0968 87.5832ZM49.5671 55.54L50.6901 53.6309C49.5297 53.8181 48.4067 54.0052 47.396 54.2298C47.658 55.278 48.0698 56.3636 48.4816 57.4491L49.5671 55.54ZM60.3854 40.4168C54.4335 34.8018 49.2677 32.6307 46.9094 34.0531C44.551 35.3633 43.8398 40.866 45.7489 48.8768C48.7174 48.2678 51.7164 47.8179 54.733 47.5292C56.5298 45.0212 58.4389 42.6254 60.3854 40.4168Z" fill="#333333"/>
</svg>
