<svg width="128" height="128" viewBox="0 0 128 128" fill="none" xmlns="http://www.w3.org/2000/svg">
<circle cx="64" cy="64" r="64" fill="#FFA500"/>
<path d="M64 42C54.388 42 48.412 46.788 46 56.4C49.6 51.612 53.812 49.812 58.6 51C61.336 51.684 63.316 53.664 65.476 55.86C69.004 59.46 73 63.6 82 63.6C91.612 63.6 97.588 58.812 100 49.2C96.4 53.988 92.188 55.788 87.4 54.6C84.664 53.916 82.72 51.936 80.524 49.74C76.996 46.14 73 42 64 42ZM46 63.6C36.388 63.6 30.412 68.388 28 78C31.6 73.212 35.812 71.412 40.6 72.6C43.336 73.284 45.28 75.264 47.476 77.46C51.004 81.06 55 85.2 64 85.2C73.612 85.2 79.588 80.412 82 70.8C78.4 75.588 74.188 77.388 69.4 76.2C66.664 75.516 64.72 73.536 62.524 71.34C58.996 67.74 55 63.6 46 63.6Z" fill="black"/>
</svg>
