<svg width="140" height="28" viewBox="0 0 140 28" fill="none" xmlns="http://www.w3.org/2000/svg">
<path d="M4.60511 27.6295C4.21282 27.8765 3.79495 28 3.35149 28C2.8057 27.9177 2.27697 27.753 1.76529 27.5061C1.27067 27.2591 0.903965 26.9607 0.665182 26.6108C0.528734 25.6024 0.417871 24.6762 0.332591 23.8324C0.247311 22.9886 0.179088 22.1963 0.12792 21.4553C0.0767523 20.6939 0.0426404 19.9735 0.0255839 19.2944C0.00852796 18.5946 0 17.8949 0 17.1951C0 16.269 0.00852796 15.2914 0.0255839 14.2624C0.0426404 13.2334 0.0596963 12.1426 0.0767523 10.9901C0.110864 9.81698 0.136448 8.57185 0.153504 7.25469C0.170559 5.91694 0.179087 4.46601 0.179087 2.90187C0.400815 2.90187 0.733406 2.9842 1.17686 3.14884C1.62031 3.29291 2.05524 3.46784 2.48164 3.67365C2.92509 3.87946 3.31738 4.09555 3.6585 4.32194C3.99962 4.52775 4.18723 4.70268 4.22135 4.84675C4.05079 5.42301 3.89728 6.1742 3.76084 7.10033C3.64144 8.02646 3.53911 9.0555 3.45383 10.1874C3.38561 11.3194 3.33444 12.513 3.30033 13.7685C3.26621 15.0239 3.24916 16.269 3.24916 17.5039C3.24916 18.43 3.25769 19.2635 3.27474 20.0044C3.2918 20.7247 3.30885 21.3833 3.32591 21.9802C3.36002 22.5564 3.40266 23.1018 3.45383 23.6163C3.505 24.1103 3.56469 24.6042 3.63292 25.0981C4.11048 23.3488 4.63069 21.5994 5.19354 19.8501C5.77344 18.1007 6.36187 16.4234 6.95883 14.8181C7.57284 13.1922 8.17833 11.6795 8.77528 10.28C9.37224 8.88056 9.93509 7.6663 10.4638 6.63727C11.0096 5.58765 11.4957 4.76443 11.9221 4.16759C12.3485 3.55017 12.6982 3.22088 12.971 3.17971C13.1587 3.22088 13.3548 3.31349 13.5595 3.45755C13.7812 3.58104 13.9859 3.73539 14.1735 3.92062C14.3611 4.10584 14.5317 4.31165 14.6852 4.53804C14.8387 4.76443 14.9581 4.99081 15.0433 5.2172C14.4123 5.48475 13.73 6.11246 12.9966 7.10033C12.2803 8.0882 11.5554 9.28188 10.822 10.6814C10.0886 12.0603 9.37224 13.573 8.67295 15.2194C7.99071 16.8453 7.36817 18.4403 6.80532 20.0044C6.25953 21.5685 5.79049 23.0298 5.39821 24.3881C5.00592 25.7464 4.74155 26.8269 4.60511 27.6295ZM19.8421 12.8732C19.7739 14.1492 19.5863 15.2503 19.2793 16.1764C18.9723 17.082 18.5288 17.8846 17.9489 18.5843C17.3861 19.2635 16.6953 19.8809 15.8766 20.4366C15.0579 20.9923 14.1028 21.5274 13.0112 22.0419C13.0112 22.1654 13.0027 22.2992 12.9857 22.4432C12.9857 22.5667 12.9857 22.7005 12.9857 22.8445C12.9857 23.1121 13.0027 23.3899 13.0368 23.6781C13.0709 23.9662 13.1306 24.2337 13.2159 24.4807C13.3012 24.7277 13.4206 24.9335 13.5741 25.0981C13.7276 25.2422 13.9237 25.3142 14.1625 25.3142C14.623 25.3142 15.075 25.1907 15.5185 24.9438C15.9619 24.6968 16.3798 24.3984 16.7721 24.0485C17.1814 23.6781 17.5566 23.287 17.8978 22.8754C18.2559 22.4432 18.5715 22.0522 18.8444 21.7023C19.0149 21.8875 19.1599 22.0625 19.2793 22.2271C18.5118 23.462 17.6675 24.491 16.7465 25.3142C15.8425 26.1169 14.9812 26.6314 14.1625 26.8578C12.9857 26.6931 12.0646 26.1786 11.3994 25.3142C10.7513 24.4293 10.4273 23.3694 10.4273 22.1345C10.4273 21.2907 10.5211 20.4366 10.7087 19.5722C10.9134 18.6872 11.1862 17.8434 11.5274 17.0408C11.8855 16.2176 12.2949 15.4458 12.7554 14.7255C13.233 14.0051 13.7361 13.3774 14.2648 12.8423C14.8106 12.3072 15.365 11.8853 15.9278 11.5766C16.5077 11.2679 17.0791 11.1136 17.6419 11.1136C18.4265 11.237 19.1599 11.8236 19.8421 12.8732ZM18.0769 13.892C17.6163 13.9743 17.1388 14.2007 16.6442 14.5711C16.1495 14.9416 15.6805 15.4355 15.237 16.0529C14.8106 16.6703 14.4184 17.3907 14.0602 18.2139C13.702 19.0371 13.4206 19.9221 13.2159 20.8688C14.5804 20.0456 15.7146 19.0371 16.6186 17.8434C17.5225 16.6292 18.0086 15.312 18.0769 13.892ZM26.6039 11.237C26.945 11.237 27.3373 11.3605 27.7807 11.6075C28.2242 11.8545 28.6165 12.1735 28.9576 12.5645C28.8723 11.7413 28.7614 10.9695 28.625 10.2492C28.5056 9.50827 28.318 8.74679 28.0621 7.96472C27.8234 7.18265 27.4993 6.32856 27.09 5.40243C26.6806 4.4763 26.1689 3.41639 25.5549 2.22271C25.6061 2.03749 25.717 1.82139 25.8875 1.57442C26.0751 1.32745 26.2798 1.10107 26.5015 0.89526C26.7403 0.668872 26.9791 0.473355 27.2179 0.308709C27.4737 0.144064 27.7125 0.0411607 27.9342 0C28.4118 0.638001 28.8638 1.44065 29.2902 2.40794C29.7166 3.35465 30.0918 4.38368 30.4159 5.49504C30.7399 6.58582 30.9872 7.71775 31.1578 8.89085C31.3454 10.0639 31.4392 11.1856 31.4392 12.2558C31.4392 13.326 31.3369 14.427 31.1322 15.559C30.9446 16.6909 30.6717 17.8023 30.3135 18.8931C29.9724 19.9632 29.5716 20.982 29.1111 21.9493C28.6506 22.9166 28.1474 23.781 27.6016 24.5424C27.0729 25.3039 26.5186 25.9214 25.9387 26.3947C25.3588 26.8886 24.7789 27.1974 24.199 27.3208C23.0221 27.1562 22.1181 26.6931 21.4871 25.9316C20.8731 25.1907 20.5661 24.1617 20.5661 22.8445C20.5661 22.1448 20.6513 21.3833 20.8219 20.5601C21.0095 19.7369 21.2483 18.9239 21.5382 18.1213C21.8453 17.2981 22.1949 16.5057 22.5872 15.7442C22.9965 14.9621 23.4229 14.2624 23.8664 13.645C24.3269 13.0276 24.7874 12.5028 25.2479 12.0706C25.7084 11.6384 26.1604 11.3605 26.6039 11.237ZM23.9943 26.086C24.5913 25.839 25.1882 25.2936 25.7852 24.4498C26.3821 23.606 26.9194 22.6182 27.397 21.4862C27.8745 20.3337 28.2583 19.1092 28.5482 17.8126C28.8552 16.4954 29.0088 15.2297 29.0088 14.0154C29.0088 13.6656 29.0088 13.4495 29.0088 13.3671C29.0088 13.2848 29.0002 13.2025 28.9832 13.1202C28.5738 13.326 28.1389 13.6759 27.6784 14.1698C27.2179 14.6637 26.7574 15.24 26.2969 15.8986C25.8363 16.5366 25.4014 17.2363 24.9921 17.9978C24.5827 18.7593 24.216 19.5208 23.892 20.2823C23.5679 21.0437 23.3121 21.7743 23.1245 22.4741C22.9368 23.1738 22.843 23.7913 22.843 24.3264C22.843 25.3554 23.2268 25.9419 23.9943 26.086ZM40.9211 13.1819C41.0917 13.1819 41.2878 13.2231 41.5095 13.3054C41.7483 13.3671 41.9615 13.4598 42.1491 13.5832C42.3367 13.6861 42.4903 13.7993 42.6096 13.9228C42.7461 14.0463 42.8143 14.1595 42.8143 14.2624C42.4732 15.1268 42.1577 16.0015 41.8677 16.8864C41.5778 17.7508 41.3304 18.5843 41.1258 19.387C40.9211 20.1896 40.7591 20.9408 40.6397 21.6406C40.5373 22.3403 40.4862 22.9474 40.4862 23.462C40.4862 24.0382 40.5373 24.5219 40.6397 24.9129C40.742 25.2834 40.9126 25.5509 41.1514 25.7155C40.9467 25.8802 40.6823 26.014 40.3583 26.1169C40.0342 26.2198 39.7442 26.2712 39.4884 26.2712C38.5674 26.2712 38.1069 25.5097 38.1069 23.9868C38.1069 22.8137 38.4309 21.2084 39.0791 19.1709C38.7379 20.1176 38.3457 21.0129 37.9022 21.8567C37.4587 22.6799 37.0068 23.4105 36.5463 24.0485C36.0857 24.6865 35.6167 25.2113 35.1391 25.6229C34.6786 26.014 34.2522 26.2506 33.8599 26.333C33.2289 26.2918 32.7172 25.9316 32.3249 25.2525C31.9326 24.5527 31.7365 23.6678 31.7365 22.5976C31.7365 21.4451 31.9412 20.2308 32.3505 18.9548C32.7598 17.6788 33.28 16.4954 33.9111 15.4046C34.5592 14.3139 35.2585 13.4083 36.0089 12.688C36.7594 11.9471 37.4843 11.556 38.1836 11.5149C38.3542 11.5766 38.5418 11.7001 38.7465 11.8853C38.9682 12.0706 39.1729 12.2867 39.3605 12.5336C39.5652 12.7806 39.7357 13.0379 39.8722 13.3054C40.0086 13.5524 40.0854 13.7685 40.1024 13.9537C39.4202 14.0772 38.7124 14.4785 37.979 15.1577C37.2626 15.8368 36.6059 16.6601 36.0089 17.6273C35.4291 18.5741 34.9515 19.5928 34.5763 20.6836C34.2011 21.7743 34.0134 22.7931 34.0134 23.7398C34.0134 24.1308 34.1328 24.3778 34.3716 24.4807C34.8662 24.3572 35.4376 23.853 36.0857 22.968C36.7339 22.0625 37.5184 20.6733 38.4395 18.8004C38.61 18.43 38.7976 18.0184 39.0023 17.5656C39.224 17.1128 39.4458 16.6395 39.6675 16.1455C39.8892 15.6516 40.1024 15.1577 40.3071 14.6637C40.5288 14.1492 40.7335 13.6553 40.9211 13.1819ZM67.9381 8.64388C67.9381 9.91988 67.6481 11.0621 67.0682 12.0706C66.4883 13.0584 65.6952 13.8817 64.6889 14.5402C65.3371 15.0753 65.8487 15.7339 66.224 16.516C66.6163 17.2775 66.8124 18.1213 66.8124 19.0474C66.8124 20.1588 66.531 21.2598 65.9681 22.3506C65.4223 23.4208 64.6889 24.3778 63.7679 25.2216C62.8469 26.0448 61.798 26.7137 60.6211 27.2282C59.4442 27.7427 58.2418 28 57.0138 28C55.6834 28 54.5151 27.6913 53.5088 27.0739C52.5193 26.477 51.7433 25.6229 51.1804 24.5116C51.351 23.8942 51.5727 23.1327 51.8456 22.2271C52.1355 21.301 52.4511 20.3337 52.7922 19.3252C53.1335 18.2962 53.4747 17.2775 53.8158 16.269C54.1739 15.2606 54.5065 14.355 54.8135 13.5524C55.4617 11.803 56.0416 10.3521 56.5532 9.19956C57.0649 8.04704 57.534 7.1312 57.9604 6.45204C57.0223 6.80191 56.1695 7.20324 55.402 7.65601C54.6345 8.0882 54.0716 8.51011 53.7134 8.92172C53.5599 8.79824 53.3979 8.61301 53.2273 8.36604C53.0738 8.11908 52.9201 7.85153 52.7666 7.5634C52.6302 7.25469 52.5108 6.94598 52.4084 6.63727C52.3232 6.32856 52.272 6.05072 52.2549 5.80375C52.6984 5.4333 53.27 5.08343 53.9693 4.75414C54.6856 4.40426 55.4617 4.10584 56.2974 3.85888C57.1332 3.61191 57.986 3.41639 58.8558 3.27233C59.7427 3.12826 60.587 3.05623 61.3886 3.05623C63.4353 3.05623 65.0386 3.55017 66.1984 4.53804C67.3582 5.52591 67.9381 6.89452 67.9381 8.64388ZM58.1906 16.0221C57.8666 15.8368 57.5681 15.559 57.2952 15.1885C56.9029 16.2381 56.5277 17.2672 56.1695 18.2756C55.8284 19.2841 55.5214 20.2205 55.2485 21.0849C54.9756 21.9493 54.7539 22.7005 54.5833 23.3385C54.4127 23.9765 54.3189 24.4395 54.3019 24.7277C54.5406 24.8923 54.8221 25.0158 55.1461 25.0981C55.4873 25.1804 55.9051 25.2216 56.3997 25.2216C57.5596 25.2216 58.6682 25.0261 59.7257 24.6351C60.7831 24.244 61.7127 23.7192 62.5143 23.0606C63.3159 22.3815 63.9555 21.6097 64.4331 20.7453C64.9107 19.8809 65.1495 18.9754 65.1495 18.0287C65.1495 16.6703 64.6634 15.6928 63.6912 15.0959C62.3608 15.7545 60.8599 16.0838 59.1884 16.0838C58.9496 16.0838 58.762 16.0838 58.6255 16.0838C58.5062 16.0838 58.3612 16.0632 58.1906 16.0221ZM63.1539 5.30981C62.7957 5.30981 62.412 5.34068 62.0026 5.40243C61.6103 5.44359 61.1925 5.51562 60.749 5.61852C60.8172 5.70085 60.8684 5.79346 60.9025 5.89636C60.9537 5.97869 60.9963 6.0713 61.0304 6.1742C60.8769 6.42117 60.6893 6.78133 60.4676 7.25469C60.2459 7.72804 59.9986 8.28372 59.7257 8.92172C59.4528 9.53914 59.1628 10.2286 58.8558 10.9901C58.5659 11.7516 58.2674 12.5336 57.9604 13.3363C58.2503 13.254 58.6 13.1922 59.0093 13.151C59.4357 13.0893 59.8536 13.0584 60.2629 13.0584C60.4847 13.0584 60.6979 13.0687 60.9025 13.0893C61.1242 13.1099 61.3374 13.1408 61.5421 13.1819C62.3608 13.0173 63.0942 12.7806 63.7423 12.4719C64.4075 12.1426 64.9789 11.7721 65.4565 11.3605C65.934 10.9283 66.3007 10.455 66.5566 9.94046C66.8124 9.42595 66.9403 8.88056 66.9403 8.3043C66.9403 7.31643 66.6163 6.57552 65.9681 6.08159C65.32 5.56707 64.3819 5.30981 63.1539 5.30981ZM77.6307 12.8732C77.5625 14.1492 77.3748 15.2503 77.0678 16.1764C76.7608 17.082 76.3174 17.8846 75.7375 18.5843C75.1746 19.2635 74.4839 19.8809 73.6652 20.4366C72.8465 20.9923 71.8913 21.5274 70.7998 22.0419C70.7998 22.1654 70.7912 22.2992 70.7742 22.4432C70.7742 22.5667 70.7742 22.7005 70.7742 22.8445C70.7742 23.1121 70.7912 23.3899 70.8253 23.6781C70.8595 23.9662 70.9192 24.2337 71.0044 24.4807C71.0897 24.7277 71.2091 24.9335 71.3626 25.0981C71.5161 25.2422 71.7123 25.3142 71.951 25.3142C72.4116 25.3142 72.8635 25.1907 73.307 24.9438C73.7504 24.6968 74.1683 24.3984 74.5606 24.0485C74.9699 23.6781 75.3452 23.287 75.6863 22.8754C76.0445 22.4432 76.36 22.0522 76.6329 21.7023C76.8035 21.8875 76.9484 22.0625 77.0678 22.2271C76.3003 23.462 75.456 24.491 74.535 25.3142C73.6311 26.1169 72.7697 26.6314 71.951 26.8578C70.7742 26.6931 69.8532 26.1786 69.188 25.3142C68.5399 24.4293 68.2158 23.3694 68.2158 22.1345C68.2158 21.2907 68.3096 20.4366 68.4972 19.5722C68.7019 18.6872 68.9748 17.8434 69.3159 17.0408C69.6741 16.2176 70.0834 15.4458 70.5439 14.7255C71.0215 14.0051 71.5246 13.3774 72.0534 12.8423C72.5992 12.3072 73.1535 11.8853 73.7163 11.5766C74.2962 11.2679 74.8676 11.1136 75.4305 11.1136C76.215 11.237 76.9484 11.8236 77.6307 12.8732ZM75.8654 13.892C75.4049 13.9743 74.9273 14.2007 74.4327 14.5711C73.9381 14.9416 73.469 15.4355 73.0256 16.0529C72.5992 16.6703 72.2069 17.3907 71.8487 18.2139C71.4905 19.0371 71.2091 19.9221 71.0044 20.8688C72.3689 20.0456 73.5031 19.0371 74.4071 17.8434C75.3111 16.6292 75.7972 15.312 75.8654 13.892ZM77.8945 25.2216C77.8945 24.8923 78.1333 24.3675 78.6109 23.6472C79.0884 22.9063 79.7195 22.0728 80.5041 21.1466C81.3057 20.1999 82.2182 19.2121 83.2415 18.183C84.282 17.1334 85.3565 16.125 86.4651 15.1577C85.7488 14.9724 85.1774 14.8387 84.751 14.7563C84.3417 14.674 84.0091 14.6329 83.7532 14.6329C83.2586 14.6329 82.8151 14.7152 82.4229 14.8798C82.0306 15.0445 81.6468 15.312 81.2716 15.6825C80.487 14.8592 80.0942 13.9125 80.0942 12.8423C80.0942 12.513 80.1033 12.3175 80.1203 12.2558C80.4103 11.9059 80.7514 11.6384 81.1437 11.4531C81.553 11.2679 81.9794 11.1753 82.4229 11.1753C82.9004 11.1753 83.3865 11.2679 83.8811 11.4531C84.3758 11.6384 84.8619 11.8442 85.3394 12.0706C85.817 12.2764 86.2604 12.4719 86.6698 12.6571C87.0962 12.8423 87.4714 12.935 87.7955 12.935C87.9831 12.935 88.1878 12.9041 88.4095 12.8423C88.6483 12.7806 88.8444 12.6983 88.9979 12.5954C89.1514 12.7394 89.2879 13.0276 89.4073 13.4598C89.5437 13.892 89.6119 14.3139 89.6119 14.7255C89.0832 14.9724 88.4436 15.4046 87.6931 16.0221C86.9597 16.6395 86.2093 17.3495 85.4418 18.1522C84.6742 18.9548 83.9238 19.8089 83.1904 20.7144C82.474 21.62 81.8771 22.4741 81.3995 23.2767C81.7577 23.462 82.2438 23.5546 82.8578 23.5546C83.2501 23.5546 83.6509 23.5134 84.0602 23.4311C84.4696 23.3488 84.8619 23.2356 85.2371 23.0915C85.6294 22.9474 85.9876 22.7828 86.3116 22.5976C86.6357 22.3918 86.9086 22.1757 87.1303 21.9493C87.9319 22.5667 88.3327 23.4723 88.3327 24.6659C88.3327 24.8306 88.3242 24.9644 88.3072 25.0673C88.3072 25.1702 88.2986 25.2936 88.2816 25.4377C87.497 26.0345 86.6442 26.333 85.7232 26.333C85.2627 26.333 84.8022 26.2712 84.3417 26.1477C83.8811 26.0448 83.4292 25.9316 82.9857 25.8082C82.5593 25.6847 82.15 25.5715 81.7577 25.4686C81.3824 25.3451 81.0328 25.2834 80.7087 25.2834C79.8901 25.2834 79.2249 25.7464 78.7132 26.6725C78.4915 26.5696 78.3038 26.3844 78.1503 26.1169C78.0139 25.8493 77.9286 25.5509 77.8945 25.2216ZM99.5843 13.1819C99.7549 13.1819 99.951 13.2231 100.173 13.3054C100.412 13.3671 100.625 13.4598 100.812 13.5832C101 13.6861 101.153 13.7993 101.273 13.9228C101.409 14.0463 101.478 14.1595 101.478 14.2624C101.136 15.1268 100.821 16.0015 100.531 16.8864C100.241 17.7508 99.9937 18.5843 99.789 19.387C99.5843 20.1896 99.4223 20.9408 99.3029 21.6406C99.2006 22.3403 99.1494 22.9474 99.1494 23.462C99.1494 24.0382 99.2006 24.5219 99.3029 24.9129C99.4053 25.2834 99.5758 25.5509 99.8146 25.7155C99.6099 25.8802 99.3456 26.014 99.0215 26.1169C98.6974 26.2198 98.4075 26.2712 98.1516 26.2712C97.2306 26.2712 96.7701 25.5097 96.7701 23.9868C96.7701 22.8137 97.0942 21.2084 97.7423 19.1709C97.4012 20.1176 97.0089 21.0129 96.5654 21.8567C96.122 22.6799 95.67 23.4105 95.2095 24.0485C94.749 24.6865 94.2799 25.2113 93.8024 25.6229C93.3419 26.014 92.9155 26.2506 92.5232 26.333C91.8921 26.2918 91.3804 25.9316 90.9881 25.2525C90.5959 24.5527 90.3997 23.6678 90.3997 22.5976C90.3997 21.4451 90.6044 20.2308 91.0137 18.9548C91.4231 17.6788 91.9433 16.4954 92.5744 15.4046C93.2225 14.3139 93.9218 13.4083 94.6722 12.688C95.4227 11.9471 96.1476 11.556 96.8469 11.5149C97.0174 11.5766 97.205 11.7001 97.4097 11.8853C97.6314 12.0706 97.8361 12.2867 98.0237 12.5336C98.2284 12.7806 98.399 13.0379 98.5354 13.3054C98.6718 13.5524 98.7486 13.7685 98.7657 13.9537C98.0834 14.0772 97.3756 14.4785 96.6422 15.1577C95.9258 15.8368 95.2692 16.6601 94.6722 17.6273C94.0923 18.5741 93.6148 19.5928 93.2395 20.6836C92.8643 21.7743 92.6767 22.7931 92.6767 23.7398C92.6767 24.1308 92.7961 24.3778 93.0349 24.4807C93.5295 24.3572 94.1009 23.853 94.749 22.968C95.3971 22.0625 96.1817 20.6733 97.1027 18.8004C97.2733 18.43 97.4609 18.0184 97.6655 17.5656C97.8873 17.1128 98.109 16.6395 98.3307 16.1455C98.5524 15.6516 98.7657 15.1577 98.9703 14.6637C99.1921 14.1492 99.3967 13.6553 99.5843 13.1819ZM102.75 23.6781C102.75 22.7725 102.929 21.5068 103.287 19.8809C103.645 18.2345 104.148 16.3205 104.797 14.1389C105.854 10.6608 106.843 7.7692 107.764 5.46417C108.702 3.13855 109.615 1.32745 110.502 0.0308704C110.706 0.0720311 110.954 0.174934 111.244 0.33958C111.551 0.504226 111.849 0.689453 112.139 0.89526C112.429 1.08049 112.685 1.276 112.907 1.48181C113.145 1.68762 113.299 1.85226 113.367 1.97574C112.037 3.86917 110.868 5.90665 109.862 8.0882C108.856 10.2698 107.935 12.7703 107.099 15.5899C106.383 18.0184 105.837 20.2102 105.462 22.1654C105.086 24.1 104.899 25.7155 104.899 27.0121C104.899 27.362 104.899 27.5781 104.899 27.6604C104.899 27.7427 104.907 27.8251 104.924 27.9074C104.686 27.8662 104.481 27.7942 104.31 27.6913C104.14 27.5884 104.029 27.4649 103.978 27.3208C103.944 27.2179 103.85 27.0636 103.696 26.8578C103.543 26.6725 103.406 26.5285 103.287 26.4256C103.134 26.3021 103.006 25.9831 102.903 25.4686C102.801 24.9335 102.75 24.3366 102.75 23.6781ZM117.881 12.8732C117.812 14.1492 117.625 15.2503 117.318 16.1764C117.011 17.082 116.567 17.8846 115.987 18.5843C115.425 19.2635 114.734 19.8809 113.915 20.4366C113.096 20.9923 112.141 21.5274 111.05 22.0419C111.05 22.1654 111.041 22.2992 111.024 22.4432C111.024 22.5667 111.024 22.7005 111.024 22.8445C111.024 23.1121 111.041 23.3899 111.075 23.6781C111.109 23.9662 111.169 24.2337 111.254 24.4807C111.34 24.7277 111.459 24.9335 111.613 25.0981C111.766 25.2422 111.962 25.3142 112.201 25.3142C112.661 25.3142 113.113 25.1907 113.557 24.9438C114 24.6968 114.418 24.3984 114.811 24.0485C115.22 23.6781 115.595 23.287 115.936 22.8754C116.294 22.4432 116.61 22.0522 116.883 21.7023C117.053 21.8875 117.198 22.0625 117.318 22.2271C116.55 23.462 115.706 24.491 114.785 25.3142C113.881 26.1169 113.02 26.6314 112.201 26.8578C111.024 26.6931 110.103 26.1786 109.438 25.3142C108.79 24.4293 108.466 23.3694 108.466 22.1345C108.466 21.2907 108.56 20.4366 108.747 19.5722C108.952 18.6872 109.225 17.8434 109.566 17.0408C109.924 16.2176 110.333 15.4458 110.794 14.7255C111.271 14.0051 111.775 13.3774 112.303 12.8423C112.849 12.3072 113.403 11.8853 113.966 11.5766C114.546 11.2679 115.118 11.1136 115.68 11.1136C116.465 11.237 117.198 11.8236 117.881 12.8732ZM116.115 13.892C115.655 13.9743 115.177 14.2007 114.683 14.5711C114.188 14.9416 113.719 15.4355 113.275 16.0529C112.849 16.6703 112.457 17.3907 112.099 18.2139C111.74 19.0371 111.459 19.9221 111.254 20.8688C112.619 20.0456 113.753 19.0371 114.657 17.8434C115.561 16.6292 116.047 15.312 116.115 13.892ZM128.224 12.8732C128.156 14.1492 127.968 15.2503 127.661 16.1764C127.354 17.082 126.911 17.8846 126.331 18.5843C125.768 19.2635 125.077 19.8809 124.258 20.4366C123.44 20.9923 122.485 21.5274 121.393 22.0419C121.393 22.1654 121.385 22.2992 121.367 22.4432C121.367 22.5667 121.367 22.7005 121.367 22.8445C121.367 23.1121 121.385 23.3899 121.419 23.6781C121.453 23.9662 121.512 24.2337 121.598 24.4807C121.683 24.7277 121.802 24.9335 121.956 25.0981C122.109 25.2422 122.306 25.3142 122.544 25.3142C123.005 25.3142 123.457 25.1907 123.9 24.9438C124.344 24.6968 124.762 24.3984 125.154 24.0485C125.563 23.6781 125.938 23.287 126.28 22.8754C126.638 22.4432 126.953 22.0522 127.226 21.7023C127.397 21.8875 127.542 22.0625 127.661 22.2271C126.894 23.462 126.049 24.491 125.128 25.3142C124.224 26.1169 123.363 26.6314 122.544 26.8578C121.367 26.6931 120.446 26.1786 119.781 25.3142C119.133 24.4293 118.809 23.3694 118.809 22.1345C118.809 21.2907 118.903 20.4366 119.09 19.5722C119.295 18.6872 119.568 17.8434 119.909 17.0408C120.267 16.2176 120.677 15.4458 121.137 14.7255C121.615 14.0051 122.118 13.3774 122.647 12.8423C123.192 12.3072 123.747 11.8853 124.31 11.5766C124.89 11.2679 125.461 11.1136 126.024 11.1136C126.808 11.237 127.542 11.8236 128.224 12.8732ZM126.459 13.892C125.998 13.9743 125.521 14.2007 125.026 14.5711C124.531 14.9416 124.062 15.4355 123.619 16.0529C123.192 16.6703 122.8 17.3907 122.442 18.2139C122.084 19.0371 121.802 19.9221 121.598 20.8688C122.962 20.0456 124.096 19.0371 125 17.8434C125.904 16.6292 126.39 15.312 126.459 13.892ZM129.383 23.6781C129.383 22.7725 129.562 21.5068 129.92 19.8809C130.278 18.2345 130.781 16.3205 131.429 14.1389C132.487 10.6608 133.476 7.7692 134.397 5.46417C135.335 3.13855 136.248 1.32745 137.135 0.0308704C137.339 0.0720311 137.587 0.174934 137.877 0.33958C138.184 0.504226 138.482 0.689453 138.772 0.89526C139.062 1.08049 139.318 1.276 139.54 1.48181C139.778 1.68762 139.932 1.85226 140 1.97574C138.67 3.86917 137.501 5.90665 136.495 8.0882C135.489 10.2698 134.568 12.7703 133.732 15.5899C133.016 18.0184 132.47 20.2102 132.095 22.1654C131.719 24.1 131.532 25.7155 131.532 27.0121C131.532 27.362 131.532 27.5781 131.532 27.6604C131.532 27.7427 131.54 27.8251 131.557 27.9074C131.319 27.8662 131.114 27.7942 130.943 27.6913C130.773 27.5884 130.662 27.4649 130.611 27.3208C130.577 27.2179 130.483 27.0636 130.329 26.8578C130.176 26.6725 130.039 26.5285 129.92 26.4256C129.766 26.3021 129.639 25.9831 129.536 25.4686C129.434 24.9335 129.383 24.3366 129.383 23.6781Z" fill="#FFA500"/>
</svg>
