<svg width="106" height="64" viewBox="0 0 106 64" fill="none" xmlns="http://www.w3.org/2000/svg">
<path d="M68.8861 31.9933C68.8861 40.4794 61.7608 47.3588 52.9712 47.3588C44.1817 47.3588 37.0564 40.4794 37.0564 31.9933C37.0564 23.5071 44.1817 16.6278 52.9712 16.6278C61.7608 16.6277 68.8861 23.5071 68.8861 31.9933ZM53 0C43.8995 0.040681 34.4664 2.27333 25.5368 6.54787C18.9067 9.85238 12.4453 14.5146 6.83647 20.2691C4.08171 23.2066 0.568072 27.4601 0 31.9983C0.0671333 35.9294 4.25148 40.7815 6.83647 43.7275C12.0961 49.256 18.3892 53.7881 25.5368 57.4521C33.8641 61.5248 43.0812 63.8696 53 64C62.1092 63.9587 71.5401 61.7003 80.4598 57.4521C87.09 54.1476 93.5546 49.482 99.1635 43.7275C101.918 40.79 105.432 36.5365 106 31.9983C105.933 28.0672 101.749 23.2148 99.1635 20.269C93.9039 14.7404 87.6074 10.2118 80.4598 6.54769C72.1369 2.47816 62.897 0.149461 53 0ZM52.9933 7.94464C66.7838 7.94464 77.9629 18.7152 77.9629 32.0017C77.9629 45.2881 66.7838 56.0587 52.9933 56.0587C39.2028 56.0587 28.0237 45.2881 28.0237 32.0017C28.0237 18.7152 39.2028 7.94464 52.9933 7.94464Z" fill="white"/>
</svg>
