<svg width="128" height="128" viewBox="0 0 128 128" fill="none" xmlns="http://www.w3.org/2000/svg">
<circle cx="64" cy="64" r="64" fill="#FFC800"/>
<g clip-path="url(#clip0_4_24)">
<path d="M83.125 28H44.875C35.5552 28 28 35.5552 28 44.875V83.125C28 92.4448 35.5552 100 44.875 100H83.125C92.4448 100 100 92.4448 100 83.125V44.875C100 35.5552 92.4448 28 83.125 28Z" fill="white"/>
<path d="M92.125 79.451C91.3062 79.7611 90.4023 79.7605 89.5839 79.4493C88.7656 79.1381 88.0896 78.5379 87.6838 77.7621C85.1348 73.9464 82.3201 70.3028 79.6147 66.581L78.4416 65.0173C75.2202 69.3333 71.9987 73.4773 69.0588 77.7779C68.6759 78.5193 68.0365 79.0963 67.2597 79.4013C66.483 79.7062 65.6218 79.7184 64.8367 79.4356L76.9248 63.219L65.681 48.5658C66.4904 48.2736 67.3758 48.2695 68.1878 48.5544C68.9998 48.8393 69.6887 49.3957 70.138 50.1296C72.7494 53.9456 75.6426 57.5892 78.5198 61.4519C81.413 57.6204 84.2747 53.9611 86.9489 50.1766C87.3339 49.4471 87.9737 48.8848 88.7465 48.5964C89.5192 48.3081 90.371 48.3139 91.1398 48.6128L86.7767 54.399C84.8221 56.9792 82.8986 59.5751 80.8657 62.0928C80.7018 62.2395 80.5707 62.419 80.4809 62.6198C80.3911 62.8205 80.3447 63.038 80.3447 63.2579C80.3447 63.4778 80.3911 63.6953 80.4809 63.896C80.5707 64.0968 80.7018 64.2764 80.8657 64.423C84.6032 69.3803 88.3093 74.3531 92.125 79.451ZM35.875 63.0156C36.2035 61.4519 36.4066 59.7472 36.8602 58.1522C39.5656 48.5349 50.5903 44.5313 58.1748 50.4896C62.616 53.9771 63.7263 58.9187 63.5075 64.4857H38.4867C38.08 74.4316 45.2578 80.4365 54.4372 77.3715C55.9263 76.8388 57.2592 75.9437 58.3158 74.7669C59.3724 73.5902 60.1193 72.1689 60.4892 70.6313C60.974 69.0676 61.7559 68.8018 63.2415 69.2551C62.9969 71.159 62.3238 72.9825 61.2729 74.5887C60.222 76.1949 58.8206 77.542 57.1741 78.5285C54.4537 80.0163 51.3326 80.6057 48.257 80.2125C45.1814 79.8193 42.309 78.4636 40.0504 76.3393C37.816 73.8269 36.4649 70.6525 36.2035 67.3005C36.2035 66.7689 36.0002 66.2371 35.8907 65.7367C35.8804 64.8297 35.8752 63.9227 35.875 63.0156ZM38.5179 62.3432H61.1462C61.0052 55.1342 56.4546 50.0205 50.3872 49.9738C43.6316 49.8798 38.7994 54.8838 38.5022 62.3119L38.5179 62.3432Z" fill="#FFC800"/>
</g>
<defs>
<clipPath id="clip0_4_24">
<rect width="72" height="72" fill="white" transform="translate(28 28)"/>
</clipPath>
</defs>
</svg>
