<svg width="128" height="128" viewBox="0 0 128 128" fill="none" xmlns="http://www.w3.org/2000/svg">
<circle cx="64" cy="64" r="64" fill="#FFC800"/>
<g clip-path="url(#clip0_4_25)">
<path d="M70.0324 36.0141C67.0147 32.4337 64.416 28.7971 63.8851 28.0419C63.8725 28.0287 63.8573 28.0181 63.8405 28.0109C63.8237 28.0037 63.8056 28 63.7873 28C63.769 28 63.7509 28.0037 63.7341 28.0109C63.7173 28.0181 63.7021 28.0287 63.6895 28.0419C63.1586 28.7972 60.5599 32.4337 57.5421 36.0141C31.6395 69.0497 61.6218 91.344 61.6218 91.344L61.8732 91.5118C62.0967 94.9524 62.6556 99.9037 62.6556 99.9037H64.891C64.891 99.9037 65.4497 94.9804 65.6733 91.512L65.9249 91.316C65.9528 91.3441 95.9351 69.0498 70.0324 36.0141ZM63.7733 90.8404C63.7733 90.8404 62.432 89.6936 62.0687 89.1063V89.0502L63.6895 53.0775C63.6895 52.9656 63.8572 52.9656 63.8572 53.0775L65.4778 89.0502V89.1063C65.1145 89.6936 63.7733 90.8405 63.7733 90.8405V90.8404Z" fill="white"/>
</g>
<defs>
<clipPath id="clip0_4_25">
<rect width="33.5738" height="72" fill="white" transform="translate(47 28)"/>
</clipPath>
</defs>
</svg>
