<svg width="264" height="44" viewBox="0 0 264 44" fill="none" xmlns="http://www.w3.org/2000/svg">
<path d="M9.112 43.072C8.376 43.456 7.592 43.648 6.76 43.648C5.736 43.52 4.744 43.264 3.784 42.88C2.856 42.496 2.168 42.032 1.72 41.488C1.464 39.92 1.256 38.48 1.096 37.168C0.936 35.856 0.808001 34.624 0.712001 33.472C0.616001 32.288 0.552001 31.168 0.52 30.112C0.488 29.024 0.472 27.936 0.472 26.848C0.472 25.408 0.488 23.888 0.52 22.288C0.552001 20.688 0.584001 18.992 0.616001 17.2C0.680001 15.376 0.728001 13.44 0.76 11.392C0.792 9.312 0.808 7.056 0.808 4.624C1.224 4.624 1.848 4.752 2.68 5.008C3.512 5.232 4.328 5.504 5.128 5.824C5.96 6.144 6.696 6.48 7.336 6.832C7.976 7.152 8.328 7.424 8.392 7.648C8.072 8.544 7.784 9.712 7.528 11.152C7.304 12.592 7.112 14.192 6.952 15.952C6.824 17.712 6.728 19.568 6.664 21.52C6.6 23.472 6.568 25.408 6.568 27.328C6.568 28.768 6.584 30.064 6.616 31.216C6.648 32.336 6.68 33.36 6.712 34.288C6.776 35.184 6.856 36.032 6.952 36.832C7.048 37.6 7.16 38.368 7.288 39.136C8.184 36.416 9.16 33.696 10.216 30.976C11.304 28.256 12.408 25.648 13.528 23.152C14.68 20.624 15.816 18.272 16.936 16.096C18.056 13.92 19.112 12.032 20.104 10.432C21.128 8.8 22.04 7.52 22.84 6.592C23.64 5.632 24.296 5.12 24.808 5.056C25.16 5.12 25.528 5.264 25.912 5.488C26.328 5.68 26.712 5.92 27.064 6.208C27.416 6.496 27.736 6.816 28.024 7.168C28.312 7.52 28.536 7.872 28.696 8.224C27.512 8.64 26.232 9.616 24.856 11.152C23.512 12.688 22.152 14.544 20.776 16.72C19.4 18.864 18.056 21.216 16.744 23.776C15.464 26.304 14.296 28.784 13.24 31.216C12.216 33.648 11.336 35.92 10.6 38.032C9.864 40.144 9.368 41.824 9.112 43.072ZM37.6994 20.128C37.5714 22.112 37.2194 23.824 36.6434 25.264C36.0674 26.672 35.2354 27.92 34.1474 29.008C33.0914 30.064 31.7954 31.024 30.2594 31.888C28.7234 32.752 26.9314 33.584 24.8834 34.384C24.8834 34.576 24.8674 34.784 24.8354 35.008C24.8354 35.2 24.8354 35.408 24.8354 35.632C24.8354 36.048 24.8674 36.48 24.9314 36.928C24.9954 37.376 25.1074 37.792 25.2674 38.176C25.4274 38.56 25.6514 38.88 25.9394 39.136C26.2274 39.36 26.5954 39.472 27.0434 39.472C27.9074 39.472 28.7554 39.28 29.5874 38.896C30.4194 38.512 31.2034 38.048 31.9394 37.504C32.7074 36.928 33.4114 36.32 34.0514 35.68C34.7234 35.008 35.3154 34.4 35.8274 33.856C36.1474 34.144 36.4194 34.416 36.6434 34.672C35.2034 36.592 33.6194 38.192 31.8914 39.472C30.1954 40.72 28.5794 41.52 27.0434 41.872C24.8354 41.616 23.1074 40.816 21.8594 39.472C20.6434 38.096 20.0354 36.448 20.0354 34.528C20.0354 33.216 20.2114 31.888 20.5634 30.544C20.9474 29.168 21.4594 27.856 22.0994 26.608C22.7714 25.328 23.5394 24.128 24.4034 23.008C25.2994 21.888 26.2434 20.912 27.2354 20.08C28.2594 19.248 29.2994 18.592 30.3554 18.112C31.4434 17.632 32.5154 17.392 33.5714 17.392C35.0434 17.584 36.4194 18.496 37.6994 20.128ZM34.3874 21.712C33.5234 21.84 32.6274 22.192 31.6994 22.768C30.7714 23.344 29.8914 24.112 29.0594 25.072C28.2594 26.032 27.5234 27.152 26.8514 28.432C26.1794 29.712 25.6514 31.088 25.2674 32.56C27.8274 31.28 29.9554 29.712 31.6514 27.856C33.3474 25.968 34.2594 23.92 34.3874 21.712ZM50.3856 17.584C51.0256 17.584 51.7616 17.776 52.5936 18.16C53.4256 18.544 54.1616 19.04 54.8016 19.648C54.6416 18.368 54.4336 17.168 54.1776 16.048C53.9536 14.896 53.6016 13.712 53.1216 12.496C52.6736 11.28 52.0656 9.952 51.2976 8.512C50.5296 7.072 49.5696 5.424 48.4176 3.568C48.5136 3.28 48.7216 2.944 49.0416 2.56C49.3936 2.176 49.7776 1.824 50.1936 1.504C50.6416 1.152 51.0896 0.847999 51.5376 0.591998C52.0176 0.335998 52.4656 0.175998 52.8816 0.111999C53.7776 1.104 54.6256 2.352 55.4256 3.856C56.2256 5.328 56.9296 6.928 57.5376 8.656C58.1456 10.352 58.6096 12.112 58.9296 13.936C59.2816 15.76 59.4576 17.504 59.4576 19.168C59.4576 20.832 59.2656 22.544 58.8816 24.304C58.5296 26.064 58.0176 27.792 57.3456 29.488C56.7056 31.152 55.9536 32.736 55.0896 34.24C54.2256 35.744 53.2816 37.088 52.2576 38.272C51.2656 39.456 50.2256 40.416 49.1376 41.152C48.0496 41.92 46.9616 42.4 45.8736 42.592C43.6656 42.336 41.9696 41.616 40.7856 40.432C39.6336 39.28 39.0576 37.68 39.0576 35.632C39.0576 34.544 39.2176 33.36 39.5376 32.08C39.8896 30.8 40.3376 29.536 40.8816 28.288C41.4576 27.008 42.1136 25.776 42.8496 24.592C43.6176 23.376 44.4176 22.288 45.2496 21.328C46.1136 20.368 46.9776 19.552 47.8416 18.88C48.7056 18.208 49.5536 17.776 50.3856 17.584ZM45.4896 40.672C46.6096 40.288 47.7296 39.44 48.8496 38.128C49.9696 36.816 50.9776 35.28 51.8736 33.52C52.7696 31.728 53.4896 29.824 54.0336 27.808C54.6096 25.76 54.8976 23.792 54.8976 21.904C54.8976 21.36 54.8976 21.024 54.8976 20.896C54.8976 20.768 54.8816 20.64 54.8496 20.512C54.0816 20.832 53.2656 21.376 52.4016 22.144C51.5376 22.912 50.6736 23.808 49.8096 24.832C48.9456 25.824 48.1296 26.912 47.3616 28.096C46.5936 29.28 45.9056 30.464 45.2976 31.648C44.6896 32.832 44.2096 33.968 43.8576 35.056C43.5056 36.144 43.3296 37.104 43.3296 37.936C43.3296 39.536 44.0496 40.448 45.4896 40.672ZM77.2473 20.608C77.5673 20.608 77.9353 20.672 78.3513 20.8C78.7993 20.896 79.1993 21.04 79.5513 21.232C79.9033 21.392 80.1913 21.568 80.4153 21.76C80.6713 21.952 80.7993 22.128 80.7993 22.288C80.1593 23.632 79.5673 24.992 79.0233 26.368C78.4793 27.712 78.0153 29.008 77.6313 30.256C77.2473 31.504 76.9433 32.672 76.7193 33.76C76.5273 34.848 76.4313 35.792 76.4313 36.592C76.4313 37.488 76.5273 38.24 76.7193 38.848C76.9113 39.424 77.2313 39.84 77.6793 40.096C77.2953 40.352 76.7993 40.56 76.1913 40.72C75.5833 40.88 75.0393 40.96 74.5593 40.96C72.8313 40.96 71.9673 39.776 71.9673 37.408C71.9673 35.584 72.5753 33.088 73.7913 29.92C73.1513 31.392 72.4153 32.784 71.5833 34.096C70.7513 35.376 69.9033 36.512 69.0393 37.504C68.1753 38.496 67.2953 39.312 66.3993 39.952C65.5353 40.56 64.7353 40.928 63.9993 41.056C62.8153 40.992 61.8553 40.432 61.1193 39.376C60.3833 38.288 60.0153 36.912 60.0153 35.248C60.0153 33.456 60.3993 31.568 61.1673 29.584C61.9353 27.6 62.9113 25.76 64.0953 24.064C65.3113 22.368 66.6233 20.96 68.0312 19.84C69.4392 18.688 70.7993 18.08 72.1113 18.016C72.4313 18.112 72.7833 18.304 73.1673 18.592C73.5833 18.88 73.9673 19.216 74.3193 19.6C74.7033 19.984 75.0233 20.384 75.2793 20.8C75.5353 21.184 75.6793 21.52 75.7113 21.808C74.4313 22 73.1033 22.624 71.7273 23.68C70.3833 24.736 69.1513 26.016 68.0312 27.52C66.9433 28.992 66.0473 30.576 65.3433 32.272C64.6393 33.968 64.2873 35.552 64.2873 37.024C64.2873 37.632 64.5113 38.016 64.9593 38.176C65.8873 37.984 66.9593 37.2 68.1753 35.824C69.3913 34.416 70.8633 32.256 72.5913 29.344C72.9113 28.768 73.2633 28.128 73.6473 27.424C74.0633 26.72 74.4793 25.984 74.8953 25.216C75.3113 24.448 75.7113 23.68 76.0953 22.912C76.5113 22.112 76.8953 21.344 77.2473 20.608ZM127.936 13.552C127.936 15.536 127.392 17.312 126.304 18.88C125.216 20.416 123.728 21.696 121.84 22.72C123.056 23.552 124.016 24.576 124.72 25.792C125.456 26.976 125.824 28.288 125.824 29.728C125.824 31.456 125.296 33.168 124.24 34.864C123.216 36.528 121.84 38.016 120.112 39.328C118.384 40.608 116.416 41.648 114.208 42.448C112 43.248 109.744 43.648 107.44 43.648C104.944 43.648 102.752 43.168 100.864 42.208C99.0076 41.28 97.5516 39.952 96.4956 38.224C96.8156 37.264 97.2316 36.08 97.7436 34.672C98.2876 33.232 98.8796 31.728 99.5196 30.16C100.16 28.56 100.8 26.976 101.44 25.408C102.112 23.84 102.736 22.432 103.312 21.184C104.528 18.464 105.616 16.208 106.576 14.416C107.536 12.624 108.416 11.2 109.216 10.144C107.456 10.688 105.856 11.312 104.416 12.016C102.976 12.688 101.92 13.344 101.248 13.984C100.96 13.792 100.656 13.504 100.336 13.12C100.048 12.736 99.7596 12.32 99.4716 11.872C99.2156 11.392 98.9916 10.912 98.7996 10.432C98.6396 9.952 98.5436 9.52 98.5116 9.136C99.3436 8.56 100.416 8.016 101.728 7.504C103.072 6.96 104.528 6.496 106.096 6.112C107.664 5.728 109.264 5.424 110.896 5.2C112.56 4.976 114.144 4.864 115.648 4.864C119.488 4.864 122.496 5.632 124.672 7.168C126.848 8.704 127.936 10.832 127.936 13.552ZM109.648 25.024C109.04 24.736 108.48 24.304 107.968 23.728C107.232 25.36 106.528 26.96 105.856 28.528C105.216 30.096 104.64 31.552 104.128 32.896C103.616 34.24 103.2 35.408 102.88 36.4C102.56 37.392 102.384 38.112 102.352 38.56C102.8 38.816 103.328 39.008 103.936 39.136C104.576 39.264 105.36 39.328 106.288 39.328C108.464 39.328 110.544 39.024 112.528 38.416C114.512 37.808 116.256 36.992 117.76 35.968C119.264 34.912 120.464 33.712 121.36 32.368C122.256 31.024 122.704 29.616 122.704 28.144C122.704 26.032 121.792 24.512 119.968 23.584C117.472 24.608 114.656 25.12 111.52 25.12C111.072 25.12 110.72 25.12 110.464 25.12C110.24 25.12 109.968 25.088 109.648 25.024ZM118.96 8.368C118.288 8.368 117.568 8.416 116.8 8.512C116.064 8.576 115.28 8.688 114.448 8.848C114.576 8.976 114.672 9.12 114.736 9.28C114.832 9.408 114.912 9.552 114.976 9.712C114.688 10.096 114.336 10.656 113.92 11.392C113.504 12.128 113.04 12.992 112.528 13.984C112.016 14.944 111.472 16.016 110.896 17.2C110.352 18.384 109.792 19.6 109.216 20.848C109.76 20.72 110.416 20.624 111.184 20.56C111.984 20.464 112.768 20.416 113.536 20.416C113.952 20.416 114.352 20.432 114.736 20.464C115.152 20.496 115.552 20.544 115.936 20.608C117.472 20.352 118.848 19.984 120.064 19.504C121.312 18.992 122.384 18.416 123.28 17.776C124.176 17.104 124.864 16.368 125.344 15.568C125.824 14.768 126.064 13.92 126.064 13.024C126.064 11.488 125.456 10.336 124.24 9.568C123.024 8.768 121.264 8.368 118.96 8.368ZM146.121 20.128C145.993 22.112 145.641 23.824 145.065 25.264C144.489 26.672 143.657 27.92 142.569 29.008C141.513 30.064 140.217 31.024 138.681 31.888C137.145 32.752 135.353 33.584 133.305 34.384C133.305 34.576 133.289 34.784 133.257 35.008C133.257 35.2 133.257 35.408 133.257 35.632C133.257 36.048 133.289 36.48 133.353 36.928C133.417 37.376 133.529 37.792 133.689 38.176C133.849 38.56 134.073 38.88 134.361 39.136C134.649 39.36 135.017 39.472 135.465 39.472C136.329 39.472 137.177 39.28 138.009 38.896C138.841 38.512 139.625 38.048 140.361 37.504C141.129 36.928 141.833 36.32 142.473 35.68C143.145 35.008 143.737 34.4 144.249 33.856C144.569 34.144 144.841 34.416 145.065 34.672C143.625 36.592 142.041 38.192 140.313 39.472C138.617 40.72 137.001 41.52 135.465 41.872C133.257 41.616 131.529 40.816 130.281 39.472C129.065 38.096 128.457 36.448 128.457 34.528C128.457 33.216 128.633 31.888 128.985 30.544C129.369 29.168 129.881 27.856 130.521 26.608C131.193 25.328 131.961 24.128 132.825 23.008C133.721 21.888 134.665 20.912 135.657 20.08C136.681 19.248 137.721 18.592 138.777 18.112C139.865 17.632 140.937 17.392 141.993 17.392C143.465 17.584 144.841 18.496 146.121 20.128ZM142.809 21.712C141.945 21.84 141.049 22.192 140.121 22.768C139.193 23.344 138.313 24.112 137.481 25.072C136.681 26.032 135.945 27.152 135.273 28.432C134.601 29.712 134.073 31.088 133.689 32.56C136.249 31.28 138.377 29.712 140.073 27.856C141.769 25.968 142.681 23.92 142.809 21.712ZM146.616 39.328C146.616 38.816 147.064 38 147.96 36.88C148.856 35.728 150.04 34.432 151.512 32.992C153.016 31.52 154.728 29.984 156.648 28.384C158.6 26.752 160.616 25.184 162.696 23.68C161.352 23.392 160.28 23.184 159.48 23.056C158.712 22.928 158.088 22.864 157.608 22.864C156.68 22.864 155.848 22.992 155.112 23.248C154.376 23.504 153.656 23.92 152.952 24.496C151.48 23.216 150.743 21.744 150.743 20.08C150.743 19.568 150.76 19.264 150.792 19.168C151.336 18.624 151.976 18.208 152.712 17.92C153.48 17.632 154.28 17.488 155.112 17.488C156.008 17.488 156.92 17.632 157.848 17.92C158.776 18.208 159.688 18.528 160.584 18.88C161.48 19.2 162.312 19.504 163.08 19.792C163.88 20.08 164.584 20.224 165.192 20.224C165.544 20.224 165.928 20.176 166.344 20.08C166.792 19.984 167.16 19.856 167.448 19.696C167.736 19.92 167.992 20.368 168.216 21.04C168.472 21.712 168.6 22.368 168.6 23.008C167.608 23.392 166.408 24.064 165 25.024C163.624 25.984 162.216 27.088 160.776 28.336C159.336 29.584 157.928 30.912 156.552 32.32C155.208 33.728 154.088 35.056 153.192 36.304C153.864 36.592 154.776 36.736 155.928 36.736C156.664 36.736 157.416 36.672 158.184 36.544C158.952 36.416 159.688 36.24 160.392 36.016C161.128 35.792 161.8 35.536 162.408 35.248C163.016 34.928 163.528 34.592 163.944 34.24C165.448 35.2 166.2 36.608 166.2 38.464C166.2 38.72 166.184 38.928 166.152 39.088C166.152 39.248 166.136 39.44 166.104 39.664C164.632 40.592 163.032 41.056 161.304 41.056C160.44 41.056 159.576 40.96 158.712 40.768C157.848 40.608 157 40.432 156.168 40.24C155.368 40.048 154.6 39.872 153.864 39.712C153.16 39.52 152.504 39.424 151.896 39.424C150.36 39.424 149.112 40.144 148.152 41.584C147.736 41.424 147.384 41.136 147.096 40.72C146.84 40.304 146.68 39.84 146.616 39.328ZM187.31 20.608C187.63 20.608 187.998 20.672 188.414 20.8C188.862 20.896 189.262 21.04 189.614 21.232C189.966 21.392 190.254 21.568 190.478 21.76C190.734 21.952 190.862 22.128 190.862 22.288C190.222 23.632 189.63 24.992 189.086 26.368C188.542 27.712 188.078 29.008 187.694 30.256C187.31 31.504 187.006 32.672 186.782 33.76C186.59 34.848 186.494 35.792 186.494 36.592C186.494 37.488 186.59 38.24 186.782 38.848C186.974 39.424 187.294 39.84 187.742 40.096C187.358 40.352 186.862 40.56 186.254 40.72C185.646 40.88 185.102 40.96 184.622 40.96C182.894 40.96 182.03 39.776 182.03 37.408C182.03 35.584 182.638 33.088 183.854 29.92C183.214 31.392 182.478 32.784 181.646 34.096C180.814 35.376 179.966 36.512 179.102 37.504C178.238 38.496 177.358 39.312 176.462 39.952C175.598 40.56 174.798 40.928 174.062 41.056C172.878 40.992 171.918 40.432 171.182 39.376C170.446 38.288 170.078 36.912 170.078 35.248C170.078 33.456 170.462 31.568 171.23 29.584C171.998 27.6 172.974 25.76 174.158 24.064C175.374 22.368 176.686 20.96 178.094 19.84C179.502 18.688 180.862 18.08 182.174 18.016C182.494 18.112 182.846 18.304 183.23 18.592C183.646 18.88 184.03 19.216 184.382 19.6C184.766 19.984 185.086 20.384 185.342 20.8C185.598 21.184 185.742 21.52 185.774 21.808C184.494 22 183.166 22.624 181.79 23.68C180.446 24.736 179.214 26.016 178.094 27.52C177.006 28.992 176.11 30.576 175.406 32.272C174.702 33.968 174.35 35.552 174.35 37.024C174.35 37.632 174.574 38.016 175.022 38.176C175.95 37.984 177.022 37.2 178.238 35.824C179.454 34.416 180.926 32.256 182.654 29.344C182.974 28.768 183.326 28.128 183.71 27.424C184.126 26.72 184.542 25.984 184.958 25.216C185.374 24.448 185.774 23.68 186.158 22.912C186.574 22.112 186.958 21.344 187.31 20.608ZM193.249 36.928C193.249 35.52 193.585 33.552 194.257 31.024C194.929 28.464 195.873 25.488 197.089 22.096C199.073 16.688 200.929 12.192 202.657 8.608C204.417 4.992 206.129 2.176 207.793 0.159998C208.177 0.223997 208.641 0.383997 209.185 0.639997C209.761 0.895998 210.321 1.184 210.865 1.504C211.409 1.792 211.889 2.096 212.305 2.416C212.753 2.736 213.041 2.992 213.169 3.184C210.673 6.128 208.481 9.296 206.593 12.688C204.705 16.08 202.977 19.968 201.409 24.352C200.065 28.128 199.041 31.536 198.337 34.576C197.633 37.584 197.281 40.096 197.281 42.112C197.281 42.656 197.281 42.992 197.281 43.12C197.281 43.248 197.297 43.376 197.329 43.504C196.881 43.44 196.497 43.328 196.177 43.168C195.857 43.008 195.649 42.816 195.553 42.592C195.489 42.432 195.313 42.192 195.025 41.872C194.737 41.584 194.481 41.36 194.257 41.2C193.969 41.008 193.729 40.512 193.537 39.712C193.345 38.88 193.249 37.952 193.249 36.928ZM221.637 20.128C221.509 22.112 221.157 23.824 220.581 25.264C220.005 26.672 219.173 27.92 218.085 29.008C217.029 30.064 215.733 31.024 214.197 31.888C212.661 32.752 210.869 33.584 208.821 34.384C208.821 34.576 208.805 34.784 208.773 35.008C208.773 35.2 208.773 35.408 208.773 35.632C208.773 36.048 208.805 36.48 208.869 36.928C208.933 37.376 209.045 37.792 209.205 38.176C209.365 38.56 209.589 38.88 209.877 39.136C210.165 39.36 210.533 39.472 210.981 39.472C211.845 39.472 212.693 39.28 213.525 38.896C214.357 38.512 215.141 38.048 215.877 37.504C216.645 36.928 217.349 36.32 217.989 35.68C218.661 35.008 219.253 34.4 219.765 33.856C220.085 34.144 220.357 34.416 220.581 34.672C219.141 36.592 217.557 38.192 215.829 39.472C214.133 40.72 212.517 41.52 210.981 41.872C208.773 41.616 207.045 40.816 205.797 39.472C204.581 38.096 203.973 36.448 203.973 34.528C203.973 33.216 204.149 31.888 204.501 30.544C204.885 29.168 205.397 27.856 206.037 26.608C206.709 25.328 207.477 24.128 208.341 23.008C209.237 21.888 210.181 20.912 211.173 20.08C212.197 19.248 213.237 18.592 214.293 18.112C215.381 17.632 216.453 17.392 217.509 17.392C218.981 17.584 220.357 18.496 221.637 20.128ZM218.325 21.712C217.461 21.84 216.565 22.192 215.637 22.768C214.709 23.344 213.829 24.112 212.997 25.072C212.197 26.032 211.461 27.152 210.789 28.432C210.117 29.712 209.589 31.088 209.205 32.56C211.765 31.28 213.893 29.712 215.589 27.856C217.285 25.968 218.197 23.92 218.325 21.712ZM241.043 20.128C240.915 22.112 240.563 23.824 239.987 25.264C239.411 26.672 238.579 27.92 237.491 29.008C236.435 30.064 235.139 31.024 233.603 31.888C232.067 32.752 230.275 33.584 228.227 34.384C228.227 34.576 228.211 34.784 228.179 35.008C228.179 35.2 228.179 35.408 228.179 35.632C228.179 36.048 228.211 36.48 228.275 36.928C228.339 37.376 228.451 37.792 228.611 38.176C228.771 38.56 228.995 38.88 229.283 39.136C229.571 39.36 229.939 39.472 230.387 39.472C231.251 39.472 232.099 39.28 232.931 38.896C233.763 38.512 234.547 38.048 235.283 37.504C236.051 36.928 236.755 36.32 237.395 35.68C238.067 35.008 238.659 34.4 239.171 33.856C239.491 34.144 239.763 34.416 239.987 34.672C238.547 36.592 236.963 38.192 235.235 39.472C233.539 40.72 231.923 41.52 230.387 41.872C228.179 41.616 226.451 40.816 225.203 39.472C223.987 38.096 223.379 36.448 223.379 34.528C223.379 33.216 223.555 31.888 223.907 30.544C224.291 29.168 224.803 27.856 225.443 26.608C226.115 25.328 226.883 24.128 227.747 23.008C228.643 21.888 229.587 20.912 230.579 20.08C231.603 19.248 232.643 18.592 233.699 18.112C234.787 17.632 235.859 17.392 236.915 17.392C238.387 17.584 239.763 18.496 241.043 20.128ZM237.731 21.712C236.867 21.84 235.971 22.192 235.043 22.768C234.115 23.344 233.235 24.112 232.403 25.072C231.603 26.032 230.867 27.152 230.195 28.432C229.523 29.712 228.995 31.088 228.611 32.56C231.171 31.28 233.299 29.712 234.995 27.856C236.691 25.968 237.603 23.92 237.731 21.712ZM243.217 36.928C243.217 35.52 243.553 33.552 244.225 31.024C244.897 28.464 245.841 25.488 247.057 22.096C249.041 16.688 250.897 12.192 252.625 8.608C254.385 4.992 256.097 2.176 257.761 0.159998C258.145 0.223997 258.609 0.383997 259.153 0.639997C259.729 0.895998 260.289 1.184 260.833 1.504C261.377 1.792 261.857 2.096 262.273 2.416C262.721 2.736 263.009 2.992 263.137 3.184C260.641 6.128 258.449 9.296 256.561 12.688C254.673 16.08 252.945 19.968 251.377 24.352C250.033 28.128 249.009 31.536 248.305 34.576C247.601 37.584 247.249 40.096 247.249 42.112C247.249 42.656 247.249 42.992 247.249 43.12C247.249 43.248 247.265 43.376 247.297 43.504C246.849 43.44 246.465 43.328 246.145 43.168C245.825 43.008 245.617 42.816 245.521 42.592C245.457 42.432 245.281 42.192 244.993 41.872C244.705 41.584 244.449 41.36 244.225 41.2C243.937 41.008 243.697 40.512 243.505 39.712C243.313 38.88 243.217 37.952 243.217 36.928Z" fill="#FFC800"/>
</svg>
